<svg xmlns="http://www.w3.org/2000/svg" viewBox="0 0 512 512" width="512" height="512" role="img" aria-label="ProxView mark">
  <defs>
  <linearGradient id="amber" x1="0" y1="0" x2="1" y2="1">
    <stop offset="0%" stop-color="#FFC66E"/>
    <stop offset="55%" stop-color="#FF8A1F"/>
    <stop offset="100%" stop-color="#E5720A"/>
  </linearGradient>
  </defs>
  <g transform="translate(256.00,256.00) scale(0.88000) translate(-256,-256)"><path d="M 10.00,6.00 H 502.00 A 10.00,10.00 0 0 1 512.00,16.00 V 146.00 A 10.00,10.00 0 0 1 502.00,156.00 H 10.00 A 10.00,10.00 0 0 1 0.00,146.00 V 16.00 A 10.00,10.00 0 0 1 10.00,6.00 Z M 74.00,36.00 H 96.00 A 4.00,4.00 0 0 1 100.00,40.00 V 122.00 A 4.00,4.00 0 0 1 96.00,126.00 H 74.00 A 4.00,4.00 0 0 1 70.00,122.00 V 40.00 A 4.00,4.00 0 0 1 74.00,36.00 Z M 149.00,36.00 H 171.00 A 4.00,4.00 0 0 1 175.00,40.00 V 122.00 A 4.00,4.00 0 0 1 171.00,126.00 H 149.00 A 4.00,4.00 0 0 1 145.00,122.00 V 40.00 A 4.00,4.00 0 0 1 149.00,36.00 Z M 224.00,36.00 H 246.00 A 4.00,4.00 0 0 1 250.00,40.00 V 122.00 A 4.00,4.00 0 0 1 246.00,126.00 H 224.00 A 4.00,4.00 0 0 1 220.00,122.00 V 40.00 A 4.00,4.00 0 0 1 224.00,36.00 Z M 384.00,81.00 a 40.00,40.00 0 1 0 80.00,0 a 40.00,40.00 0 1 0 -80.00,0 Z M 10.00,202.00 H 502.00 A 10.00,10.00 0 0 1 512.00,212.00 V 342.00 A 10.00,10.00 0 0 1 502.00,352.00 H 10.00 A 10.00,10.00 0 0 1 0.00,342.00 V 212.00 A 10.00,10.00 0 0 1 10.00,202.00 Z M 74.00,232.00 H 96.00 A 4.00,4.00 0 0 1 100.00,236.00 V 318.00 A 4.00,4.00 0 0 1 96.00,322.00 H 74.00 A 4.00,4.00 0 0 1 70.00,318.00 V 236.00 A 4.00,4.00 0 0 1 74.00,232.00 Z M 149.00,232.00 H 171.00 A 4.00,4.00 0 0 1 175.00,236.00 V 318.00 A 4.00,4.00 0 0 1 171.00,322.00 H 149.00 A 4.00,4.00 0 0 1 145.00,318.00 V 236.00 A 4.00,4.00 0 0 1 149.00,232.00 Z M 224.00,232.00 H 246.00 A 4.00,4.00 0 0 1 250.00,236.00 V 318.00 A 4.00,4.00 0 0 1 246.00,322.00 H 224.00 A 4.00,4.00 0 0 1 220.00,318.00 V 236.00 A 4.00,4.00 0 0 1 224.00,232.00 Z M 384.00,277.00 a 40.00,40.00 0 1 0 80.00,0 a 40.00,40.00 0 1 0 -80.00,0 Z M 233.00,156.00 H 275.00 A 1.00,1.00 0 0 1 276.00,157.00 V 201.00 A 1.00,1.00 0 0 1 275.00,202.00 H 233.00 A 1.00,1.00 0 0 1 232.00,201.00 V 157.00 A 1.00,1.00 0 0 1 233.00,156.00 Z M 233.00,352.00 H 275.00 A 1.00,1.00 0 0 1 276.00,353.00 V 393.00 A 1.00,1.00 0 0 1 275.00,394.00 H 233.00 A 1.00,1.00 0 0 1 232.00,393.00 V 353.00 A 1.00,1.00 0 0 1 233.00,352.00 Z M 46.00,430.00 H 182.00 A 6.00,6.00 0 0 1 188.00,436.00 V 464.00 A 6.00,6.00 0 0 1 182.00,470.00 H 46.00 A 6.00,6.00 0 0 1 40.00,464.00 V 436.00 A 6.00,6.00 0 0 1 46.00,430.00 Z M 330.00,430.00 H 466.00 A 6.00,6.00 0 0 1 472.00,436.00 V 464.00 A 6.00,6.00 0 0 1 466.00,470.00 H 330.00 A 6.00,6.00 0 0 1 324.00,464.00 V 436.00 A 6.00,6.00 0 0 1 330.00,430.00 Z M 200.00,450.00 a 56.00,56.00 0 1 0 112.00,0 a 56.00,56.00 0 1 0 -112.00,0 Z M 229.00,450.00 a 27.00,27.00 0 1 0 54.00,0 a 27.00,27.00 0 1 0 -54.00,0 Z" fill="url(#amber)" fill-rule="evenodd"/></g>
</svg>
