<svg xmlns="http://www.w3.org/2000/svg" viewBox="0 0 512 512" width="512" height="512" role="img" aria-label="ProxView mark">
  <defs>
  <linearGradient id="amber" x1="0" y1="0" x2="1" y2="1">
    <stop offset="0%" stop-color="#FFC66E"/>
    <stop offset="55%" stop-color="#FF8A1F"/>
    <stop offset="100%" stop-color="#E5720A"/>
  </linearGradient>
  </defs>
  <path d="M 149.09,155.79 L 131.77,126.43 M 202.15,132.33 L 191.17,95.12 M 256.00,124.40 L 256.00,82.06 M 309.85,132.33 L 320.83,95.12 M 362.91,155.79 L 380.23,126.43" fill="none" stroke="#E9EEF5" stroke-width="25.84" stroke-linecap="round"/>
  <path d="M 56.00,256.00 Q 256.00,20.00 456.00,256.00 Q 256.00,492.00 56.00,256.00 Z" fill="none" stroke="#E9EEF5" stroke-width="34.00" stroke-linejoin="round" stroke-linecap="round"/>
  <g transform="translate(256.00,256.00) scale(1.00000)"><path d="M -93.00,-60.00 H 93.00 A 9.00,9.00 0 0 1 102.00,-51.00 V -23.00 A 9.00,9.00 0 0 1 93.00,-14.00 H -93.00 A 9.00,9.00 0 0 1 -102.00,-23.00 V -51.00 A 9.00,9.00 0 0 1 -93.00,-60.00 Z M -75.00,-47.00 H -69.00 A 3.00,3.00 0 0 1 -66.00,-44.00 V -30.00 A 3.00,3.00 0 0 1 -69.00,-27.00 H -75.00 A 3.00,3.00 0 0 1 -78.00,-30.00 V -44.00 A 3.00,3.00 0 0 1 -75.00,-47.00 Z M -45.00,-47.00 H -39.00 A 3.00,3.00 0 0 1 -36.00,-44.00 V -30.00 A 3.00,3.00 0 0 1 -39.00,-27.00 H -45.00 A 3.00,3.00 0 0 1 -48.00,-30.00 V -44.00 A 3.00,3.00 0 0 1 -45.00,-47.00 Z M -15.00,-47.00 H -9.00 A 3.00,3.00 0 0 1 -6.00,-44.00 V -30.00 A 3.00,3.00 0 0 1 -9.00,-27.00 H -15.00 A 3.00,3.00 0 0 1 -18.00,-30.00 V -44.00 A 3.00,3.00 0 0 1 -15.00,-47.00 Z M 53.00,-37.00 a 11.00,11.00 0 1 0 22.00,0 a 11.00,11.00 0 1 0 -22.00,0 Z M -93.00,14.00 H 93.00 A 9.00,9.00 0 0 1 102.00,23.00 V 51.00 A 9.00,9.00 0 0 1 93.00,60.00 H -93.00 A 9.00,9.00 0 0 1 -102.00,51.00 V 23.00 A 9.00,9.00 0 0 1 -93.00,14.00 Z M -75.00,27.00 H -69.00 A 3.00,3.00 0 0 1 -66.00,30.00 V 44.00 A 3.00,3.00 0 0 1 -69.00,47.00 H -75.00 A 3.00,3.00 0 0 1 -78.00,44.00 V 30.00 A 3.00,3.00 0 0 1 -75.00,27.00 Z M -45.00,27.00 H -39.00 A 3.00,3.00 0 0 1 -36.00,30.00 V 44.00 A 3.00,3.00 0 0 1 -39.00,47.00 H -45.00 A 3.00,3.00 0 0 1 -48.00,44.00 V 30.00 A 3.00,3.00 0 0 1 -45.00,27.00 Z M -15.00,27.00 H -9.00 A 3.00,3.00 0 0 1 -6.00,30.00 V 44.00 A 3.00,3.00 0 0 1 -9.00,47.00 H -15.00 A 3.00,3.00 0 0 1 -18.00,44.00 V 30.00 A 3.00,3.00 0 0 1 -15.00,27.00 Z M 53.00,37.00 a 11.00,11.00 0 1 0 22.00,0 a 11.00,11.00 0 1 0 -22.00,0 Z" fill="url(#amber)" fill-rule="evenodd"/></g>
</svg>
