<svg xmlns="http://www.w3.org/2000/svg" viewBox="0 0 579 160" width="579" height="160" role="img" aria-label="ProxView">
  <defs>
  <linearGradient id="amber" x1="0" y1="0" x2="1" y2="1">
    <stop offset="0%" stop-color="#FFC66E"/>
    <stop offset="55%" stop-color="#FF8A1F"/>
    <stop offset="100%" stop-color="#E5720A"/>
  </linearGradient>
  </defs>
  <path d="M 42.60,58.44 L 37.84,50.37 M 57.19,51.99 L 54.17,41.76 M 72.00,49.81 L 72.00,38.17 M 86.81,51.99 L 89.83,41.76 M 101.40,58.44 L 106.16,50.37" fill="none" stroke="#E9EEF5" stroke-width="7.11" stroke-linecap="round"/>
  <path d="M 17.00,86.00 Q 72.00,21.10 127.00,86.00 Q 72.00,150.90 17.00,86.00 Z" fill="none" stroke="#E9EEF5" stroke-width="9.35" stroke-linejoin="round" stroke-linecap="round"/>
  <g transform="translate(72.00,86.00) scale(0.27500)"><path d="M -93.00,-60.00 H 93.00 A 9.00,9.00 0 0 1 102.00,-51.00 V -23.00 A 9.00,9.00 0 0 1 93.00,-14.00 H -93.00 A 9.00,9.00 0 0 1 -102.00,-23.00 V -51.00 A 9.00,9.00 0 0 1 -93.00,-60.00 Z M -75.00,-47.00 H -69.00 A 3.00,3.00 0 0 1 -66.00,-44.00 V -30.00 A 3.00,3.00 0 0 1 -69.00,-27.00 H -75.00 A 3.00,3.00 0 0 1 -78.00,-30.00 V -44.00 A 3.00,3.00 0 0 1 -75.00,-47.00 Z M -45.00,-47.00 H -39.00 A 3.00,3.00 0 0 1 -36.00,-44.00 V -30.00 A 3.00,3.00 0 0 1 -39.00,-27.00 H -45.00 A 3.00,3.00 0 0 1 -48.00,-30.00 V -44.00 A 3.00,3.00 0 0 1 -45.00,-47.00 Z M -15.00,-47.00 H -9.00 A 3.00,3.00 0 0 1 -6.00,-44.00 V -30.00 A 3.00,3.00 0 0 1 -9.00,-27.00 H -15.00 A 3.00,3.00 0 0 1 -18.00,-30.00 V -44.00 A 3.00,3.00 0 0 1 -15.00,-47.00 Z M 53.00,-37.00 a 11.00,11.00 0 1 0 22.00,0 a 11.00,11.00 0 1 0 -22.00,0 Z M -93.00,14.00 H 93.00 A 9.00,9.00 0 0 1 102.00,23.00 V 51.00 A 9.00,9.00 0 0 1 93.00,60.00 H -93.00 A 9.00,9.00 0 0 1 -102.00,51.00 V 23.00 A 9.00,9.00 0 0 1 -93.00,14.00 Z M -75.00,27.00 H -69.00 A 3.00,3.00 0 0 1 -66.00,30.00 V 44.00 A 3.00,3.00 0 0 1 -69.00,47.00 H -75.00 A 3.00,3.00 0 0 1 -78.00,44.00 V 30.00 A 3.00,3.00 0 0 1 -75.00,27.00 Z M -45.00,27.00 H -39.00 A 3.00,3.00 0 0 1 -36.00,30.00 V 44.00 A 3.00,3.00 0 0 1 -39.00,47.00 H -45.00 A 3.00,3.00 0 0 1 -48.00,44.00 V 30.00 A 3.00,3.00 0 0 1 -45.00,27.00 Z M -15.00,27.00 H -9.00 A 3.00,3.00 0 0 1 -6.00,30.00 V 44.00 A 3.00,3.00 0 0 1 -9.00,47.00 H -15.00 A 3.00,3.00 0 0 1 -18.00,44.00 V 30.00 A 3.00,3.00 0 0 1 -15.00,27.00 Z M 53.00,37.00 a 11.00,11.00 0 1 0 22.00,0 a 11.00,11.00 0 1 0 -22.00,0 Z" fill="url(#amber)" fill-rule="evenodd"/></g>
  <g transform="translate(170.00,112.00)" fill="#E9EEF5"><g transform="translate(0.000,0.000) scale(0.092000,-0.092000)"><path d="M82 0V698H396Q444 698 482.5 682.5Q521 667 548.0 638.5Q575 610 589.0 570.0Q603 530 603 482Q603 433 589.0 393.5Q575 354 548.0 325.5Q521 297 482.5 281.5Q444 266 396 266H214V0ZM214 380H384Q422 380 444.0 400.5Q466 421 466 459V505Q466 543 444.0 563.0Q422 583 384 583H214Z"/></g><g transform="translate(57.452,0.000) scale(0.092000,-0.092000)"><path d="M74 0V522H202V414H207Q212 435 222.5 454.5Q233 474 250.0 489.0Q267 504 290.5 513.0Q314 522 345 522H373V401H333Q268 401 235.0 382.0Q202 363 202 320V0Z"/></g><g transform="translate(92.548,0.000) scale(0.092000,-0.092000)"><path d="M281 -12Q225 -12 180.5 7.0Q136 26 104.5 62.0Q73 98 56.0 148.5Q39 199 39 262Q39 325 56.0 375.0Q73 425 104.5 460.5Q136 496 180.5 515.0Q225 534 281 534Q337 534 382.0 515.0Q427 496 458.5 460.5Q490 425 507.0 375.0Q524 325 524 262Q524 199 507.0 148.5Q490 98 458.5 62.0Q427 26 382.0 7.0Q337 -12 281 -12ZM281 91Q332 91 361.0 122.0Q390 153 390 213V310Q390 369 361.0 400.0Q332 431 281 431Q231 431 202.0 400.0Q173 369 173 310V213Q173 153 202.0 122.0Q231 91 281 91Z"/></g><g transform="translate(142.364,0.000) scale(0.092000,-0.092000)"><path d="M19 0 197 265 23 522H169L277 349H281L388 522H524L347 263L525 0H379L269 180H265L155 0Z"/></g></g>
  <g transform="translate(362.41,112.00)" fill="url(#amber)"><g transform="translate(0.000,0.000) scale(0.092000,-0.092000)"><path d="M244 0 16 698H151L258 358L320 126H323L384 358L491 698H622L394 0Z"/></g><g transform="translate(58.096,0.000) scale(0.092000,-0.092000)"><path d="M138 598Q98 598 80.5 616.0Q63 634 63 662V682Q63 710 80.5 728.0Q98 746 138 746Q177 746 195.0 728.0Q213 710 213 682V662Q213 634 195.0 616.0Q177 598 138 598ZM74 522H202V0H74Z"/></g><g transform="translate(82.888,0.000) scale(0.092000,-0.092000)"><path d="M285 -12Q227 -12 181.5 7.5Q136 27 104.5 62.5Q73 98 56.0 148.5Q39 199 39 262Q39 324 55.5 374.0Q72 424 103.0 459.5Q134 495 179.0 514.5Q224 534 281 534Q342 534 387.0 513.0Q432 492 461.0 456.0Q490 420 504.5 372.5Q519 325 519 271V229H172V216Q172 159 204.0 124.5Q236 90 299 90Q347 90 377.5 110.0Q408 130 432 161L501 84Q469 39 413.5 13.5Q358 -12 285 -12ZM283 438Q232 438 202.0 404.0Q172 370 172 316V308H386V317Q386 371 359.5 404.5Q333 438 283 438Z"/></g><g transform="translate(133.164,0.000) scale(0.092000,-0.092000)"><path d="M23 522H146L199 307L240 128H244L292 307L353 522H469L532 307L581 128H585L626 307L678 522H797L654 0H516L449 230L410 372H407L369 230L303 0H167Z"/></g></g>
</svg>
